<svg width="444" height="500" viewBox="0 0 444 500" fill="none" xmlns="http://www.w3.org/2000/svg">
<path fill-rule="evenodd" clip-rule="evenodd" d="M241.999 5.54697C229.623 -1.59834 214.375 -1.59834 201.999 5.54697L20.2969 110.453C7.92083 117.598 0.296875 130.803 0.296875 145.094V354.906C0.296875 369.197 7.92083 382.402 20.2969 389.547L201.999 494.453C214.375 501.598 229.623 501.598 241.999 494.453L423.702 389.547C436.078 382.402 443.702 369.197 443.702 354.906V145.094C443.702 130.803 436.078 117.598 423.702 110.453L241.999 5.54697ZM241.999 63.0751C229.623 55.9298 214.375 55.9298 201.999 63.0751L70.1177 139.217C57.7417 146.362 50.1177 159.567 50.1177 173.858V326.142C50.1177 340.433 57.7417 353.638 70.1177 360.783L201.999 436.925C214.375 444.07 229.623 444.07 241.999 436.925L373.881 360.783C386.257 353.638 393.881 340.433 393.881 326.142V173.858C393.881 159.567 386.257 146.362 373.881 139.217L241.999 63.0751Z" fill="url(#paint0_linear_56_2243)"/>
<defs>
<linearGradient id="paint0_linear_56_2243" x1="101.19" y1="1.48201" x2="298.721" y2="499.462" gradientUnits="userSpaceOnUse">
<stop offset="0.199616" stop-color="#F20201"/>
<stop offset="1" stop-color="#710000"/>
</linearGradient>
</defs>
</svg>
