<svg width="117" height="231" viewBox="0 0 117 231" fill="none" xmlns="http://www.w3.org/2000/svg">
<path d="M114.057 34.8483C114.057 30.2004 108.83 27.4713 105.016 30.1275L73.787 51.8764L40.3901 75.1349C37.0774 77.442 37.1091 82.3544 40.4513 84.6185L74.7747 107.87C76.773 109.224 79.4038 109.186 81.3626 107.776L111.665 85.9577C113.167 84.8766 114.057 83.1393 114.057 81.2891V34.8483Z" fill="white"/>
<path d="M114.991 196.933C114.871 201.58 109.576 204.173 105.832 201.419L75.174 178.872L42.3881 154.76C39.1359 152.368 39.2943 147.458 42.6939 145.281L77.6055 122.923C79.638 121.621 82.267 121.727 84.1887 123.187L113.919 145.779C115.392 146.899 116.237 148.658 116.189 150.508L114.991 196.933Z" fill="white"/>
</svg>
