<svg width="118" height="231" viewBox="0 0 118 231" fill="none" xmlns="http://www.w3.org/2000/svg">
<path d="M3.75391 34.8483C3.75391 30.2004 8.98035 27.4713 12.7944 30.1275L44.0236 51.8764L77.4204 75.1349C80.7332 77.442 80.7014 82.3544 77.3592 84.6185L43.0358 107.87C41.0375 109.224 38.4067 109.186 36.448 107.776L6.14532 85.9577C4.6438 84.8766 3.75391 83.1393 3.75391 81.2891V34.8483Z" fill="white"/>
<path d="M2.81745 196.933C2.93731 201.58 8.2324 204.173 11.9767 201.419L42.6346 178.872L75.4205 154.76C78.6727 152.368 78.5143 147.458 75.1147 145.281L40.2031 122.923C38.1706 121.621 35.5416 121.727 33.6199 123.187L3.89001 145.779C2.41687 146.899 1.57207 148.658 1.61979 150.508L2.81745 196.933Z" fill="white"/>
</svg>
