<svg width="444" height="500" viewBox="0 0 444 500" fill="none" xmlns="http://www.w3.org/2000/svg">
<path d="M207.617 59.8316C216.517 54.6934 227.482 54.6933 236.381 59.8315L379.499 142.461C388.398 147.599 393.881 157.095 393.881 167.371V332.629C393.881 342.905 388.399 352.401 379.499 357.539L236.381 440.168C227.482 445.307 216.517 445.307 207.617 440.168L64.4996 357.539C55.6 352.401 50.1175 342.905 50.1175 332.629V167.371C50.1175 157.095 55.5999 147.599 64.4996 142.461L207.617 59.8316Z" fill="#AF0000"/>
<path d="M177.416 185.281L219.285 219.762C222.548 222.449 227.498 220.817 228.523 216.716L229.191 214.045L265.146 244.247L262.158 253.213C261.368 255.583 262.198 258.193 264.213 259.671L282.405 273.011L173.101 429.775L33.5957 339.169L177.416 185.281Z" fill="#710000"/>
<path fill-rule="evenodd" clip-rule="evenodd" d="M241.999 5.54697C229.623 -1.59834 214.375 -1.59834 201.999 5.54697L20.2969 110.453C7.92083 117.598 0.296875 130.803 0.296875 145.094V354.906C0.296875 369.197 7.92083 382.402 20.2969 389.547L201.999 494.453C214.375 501.598 229.623 501.598 241.999 494.453L423.702 389.547C436.078 382.402 443.702 369.197 443.702 354.906V145.094C443.702 130.803 436.078 117.598 423.702 110.453L241.999 5.54697ZM241.999 63.0751C229.623 55.9298 214.375 55.9298 201.999 63.0751L70.1177 139.217C57.7417 146.362 50.1177 159.567 50.1177 173.858V326.142C50.1177 340.433 57.7417 353.638 70.1177 360.783L201.999 436.925C214.375 444.07 229.623 444.07 241.999 436.925L373.881 360.783C386.257 353.638 393.881 340.433 393.881 326.142V173.858C393.881 159.567 386.257 146.362 373.881 139.217L241.999 63.0751Z" fill="url(#paint0_linear_0_1)"/>
<path d="M227.754 171.848C227.754 167.2 232.98 164.471 236.794 167.127L268.024 188.876L301.42 212.135C304.733 214.442 304.701 219.354 301.359 221.619L267.036 244.87C265.038 246.224 262.407 246.186 260.448 244.776L230.145 222.958C228.644 221.877 227.754 220.139 227.754 218.289V171.848Z" fill="white"/>
<path d="M226.817 333.933C226.937 338.58 232.232 341.173 235.977 338.419L266.635 315.872L299.421 291.76C302.673 289.368 302.514 284.458 299.115 282.281L264.203 259.923C262.171 258.621 259.542 258.727 257.62 260.187L227.89 282.779C226.417 283.899 225.572 285.658 225.62 287.508L226.817 333.933Z" fill="white"/>
<path d="M209.057 171.848C209.057 167.2 203.83 164.471 200.016 167.127L168.787 188.876L135.39 212.135C132.077 214.442 132.109 219.354 135.451 221.619L169.775 244.87C171.773 246.224 174.404 246.186 176.363 244.776L206.665 222.958C208.167 221.877 209.057 220.139 209.057 218.289V171.848Z" fill="white"/>
<path d="M209.991 333.933C209.871 338.58 204.576 341.173 200.832 338.419L170.174 315.872L137.388 291.76C134.136 289.368 134.294 284.458 137.694 282.281L172.605 259.923C174.638 258.621 177.267 258.727 179.189 260.187L208.919 282.779C210.392 283.899 211.237 285.658 211.189 287.508L209.991 333.933Z" fill="white"/>
<defs>
<linearGradient id="paint0_linear_0_1" x1="101.19" y1="1.48201" x2="298.721" y2="499.462" gradientUnits="userSpaceOnUse">
<stop offset="0.199616" stop-color="#F20201"/>
<stop offset="1" stop-color="#710000"/>
</linearGradient>
</defs>
</svg>
